<?xml version="1.0" encoding="UTF-8"?>
<svg id="Warstwa_2" data-name="Warstwa 2" xmlns="http://www.w3.org/2000/svg" xmlns:xlink="http://www.w3.org/1999/xlink" viewBox="0 0 130.95 52.62">
  <defs>
    <style>
      .cls-1 {
        fill: #fff;
      }

      .cls-2 {
        fill: #a55eea;
      }

      .cls-3 {
        stroke: #fff;
        stroke-linecap: round;
        stroke-linejoin: round;
        stroke-width: 2.34px;
      }

      .cls-3, .cls-4 {
        fill: none;
      }

      .cls-5 {
        clip-path: url(#clippath);
      }

      .cls-6 {
        fill: #1d1d1b;
      }

      .cls-7 {
        fill: #8854d0;
      }
    </style>
    <clipPath id="clippath">
      <rect class="cls-4" x="11.93" y="11.56" width="29.89" height="29.89"/>
    </clipPath>
  </defs>
  <g id="Warstwa_1-2" data-name="Warstwa 1">
    <g>
      <path class="cls-1" d="m108.78,30.26c.98,0,1.78-.8,1.78-1.78s-.8-1.78-1.78-1.78-1.78.8-1.78,1.78.8,1.78,1.78,1.78Z"/>
      <g>
        <g>
          <path class="cls-6" d="m77.14,18.36h3.52c2.13,4.58,4.28,9.14,6.43,13.71h-3.82l-1.31-2.97h-6.29l-1.27,2.97h-3.63c2.11-4.56,4.26-9.13,6.39-13.71Zm3.69,8.21l-2.05-4.7-2.02,4.7h4.07Z"/>
          <path class="cls-6" d="m100.54,32.06c-1.1-3.23-2.19-6.48-3.29-9.72l-3.38,9.72h-3.54c-1.54-4.56-3.1-9.13-4.62-13.71h3.61l2.95,9.56c1.08-3.19,2.17-6.37,3.23-9.56h3.57l3.18,9.56h.02l3.02-9.56h3.46l-4.7,13.71h-3.52Z"/>
          <path class="cls-6" d="m110.05,18.36h3.37v13.71h-3.37v-13.71Z"/>
          <path class="cls-6" d="m121,18.36h3.52c2.13,4.58,4.28,9.14,6.43,13.71h-3.82l-1.31-2.97h-6.29l-1.27,2.97h-3.63c2.11-4.56,4.26-9.13,6.39-13.71Zm3.69,8.21l-2.05-4.7-2.02,4.7h4.07Z"/>
        </g>
        <path class="cls-7" d="m54.22,31.87c0-23.69,0-31.87,0-31.87H0v52.62s11.27,0,35.44,0c12.44,0,18.78-6.89,18.78-20.74Z"/>
        <polygon class="cls-2" points="54.22 0 0 0 0 52.62 54.22 0"/>
      </g>
      <g id="g2442">
        <g id="g2444">
          <g class="cls-5">
            <g id="g2446">
              <g id="g2452">
                <path id="path2454" class="cls-1" d="m23.9,35.44h-3.35c-.39,0-.75.19-.96.51l-2.17,3.17h9.75l-2.32-3.2c-.22-.3-.57-.48-.95-.48"/>
              </g>
              <g id="g2456">
                <path id="path2458" class="cls-3" d="m30.28,31.62l-2.21-3.99c-.61-1.08-1.83-1.77-3.17-1.77h-5.41c-1.34,0-2.56.68-3.17,1.76l-2.19,3.95"/>
              </g>
              <g id="g2460">
                <path id="path2462" class="cls-3" d="m28.22,38.83v1.45h3.09v-1.75H13.1v-4.58c0-1.72,1.54-3.12,3.43-3.12h11.34c1.9,0,3.43,1.37,3.43,3.09v4.61"/>
              </g>
              <g id="g2464">
                <path id="path2466" class="cls-3" d="m16.18,38.73v1.56h-3.09v-5.97"/>
              </g>
              <g id="g2468">
                <path id="path2470" class="cls-1" d="m28.57,34.74c0,.64-.52,1.17-1.17,1.17s-1.17-.52-1.17-1.17.52-1.17,1.17-1.17,1.17.52,1.17,1.17"/>
              </g>
              <g id="g2472">
                <path id="path2474" class="cls-1" d="m18.12,34.74c0,.64-.52,1.17-1.17,1.17s-1.17-.52-1.17-1.17.52-1.17,1.17-1.17,1.17.52,1.17,1.17"/>
              </g>
              <g id="g2476">
                <path id="path2478" class="cls-3" d="m29.62,13.49c-.64-.51-1.49-.76-2.37-.76h-5.41c-1.34,0-2.56.68-3.17,1.76l-2.19,3.95"/>
              </g>
              <g id="g2480">
                <path id="path2482" class="cls-3" d="m15.43,22.71v-1.9c0-1.72,1.54-3.12,3.43-3.12h2.87"/>
              </g>
              <g id="g2484">
                <path id="path2486" class="cls-1" d="m20.45,21.6c0,.64-.52,1.17-1.17,1.17s-1.17-.52-1.17-1.17.52-1.17,1.17-1.17,1.17.52,1.17,1.17"/>
              </g>
              <g id="g2488">
                <path id="path2490" class="cls-1" d="m37.91,26.74c0,.64-.52,1.17-1.17,1.17s-1.17-.52-1.17-1.17.52-1.17,1.17-1.17,1.17.52,1.17,1.17"/>
              </g>
              <g id="g2492">
                <path id="path2494" class="cls-1" d="m25.86,21.55l.83-1.52c.4-.71,1.24-1.17,2.15-1.17h5.41c.91,0,1.75.46,2.15,1.16l.81,1.46h-8.29c-.64,0-1.17.52-1.17,1.16,0,.65.52,1.17,1.17,1.17h8.3c1.25,0,2.27.86,2.27,1.93,0,.65.53,1.17,1.18,1.17.64,0,1.16-.55,1.15-1.2,0-1.05-.41-2.03-1.15-2.8,0-.01-.01-.03-.02-.04l-2.21-3.99c-.82-1.46-2.42-2.36-4.19-2.36h-5.41c-1.77,0-3.37.9-4.19,2.37l-.93,1.75c-.43.77.09,1.73.98,1.73.54,0,.83-.29,1.16-.82"/>
              </g>
              <g id="g2496">
                <path id="path2498" class="cls-1" d="m41.3,29.66h-6.26c-.64,0-1.17.52-1.17,1.17s.52,1.17,1.17,1.17h1.35v.58c0,.64.52,1.17,1.17,1.17h3.09c.64,0,1.17-.52,1.17-1.17v-2.4c0-.28-.23-.51-.51-.51"/>
              </g>
              <g id="g2500">
                <path id="path2502" class="cls-3" d="m40.65,25.63v5.78"/>
              </g>
            </g>
          </g>
        </g>
      </g>
    </g>
  </g>
</svg>