<?xml version="1.0" encoding="UTF-8"?>
<svg id="Warstwa_2" data-name="Warstwa 2" xmlns="http://www.w3.org/2000/svg" viewBox="0 0 158.64 52.62">
  <defs>
    <style>
      .cls-1 {
        fill: #6a89cc;
      }

      .cls-2 {
        fill: #4a69bd;
      }

      .cls-3 {
        fill: #1d1d1b;
      }

      .cls-4 {
        fill: none;
        stroke: #fff;
        stroke-linecap: round;
        stroke-linejoin: round;
        stroke-width: .96px;
      }
    </style>
  </defs>
  <g id="Warstwa_1-2" data-name="Warstwa 1">
    <g>
      <g>
        <path class="cls-3" d="m87.99,26.85c-.59,3.63-3.57,5.57-7.95,5.57-4.96,0-8.27-2.74-8.27-7.24s3.25-7.21,8.25-7.21c4.2,0,7.4,1.77,7.93,5.48h-3.75c-.44-1.84-2-2.85-4.16-2.85-3.17,0-4.6,2.22-4.6,4.6,0,2.55,1.64,4.62,4.62,4.62,2.15,0,3.71-1.01,4.15-2.97h3.78Z"/>
        <path class="cls-3" d="m97.65,17.98c5.59,0,8.35,3.29,8.35,7.28s-2.78,7.21-8.35,7.21-8.37-3.27-8.37-7.26,2.78-7.23,8.37-7.23Zm4.66,7.24c0-2.59-1.71-4.62-4.68-4.62s-4.68,2.01-4.68,4.6,1.73,4.64,4.7,4.64,4.66-2.01,4.66-4.62Z"/>
        <path class="cls-3" d="m108.17,18.36h3.37v13.71h-3.37v-13.71Z"/>
        <path class="cls-3" d="m129.88,32.06h-2.49l-.17-1.69c-1.18,1.45-3.06,2.05-5.3,2.05-5.02,0-8.16-2.83-8.16-7.28,0-4.18,3.16-7.17,8.25-7.17,4.2,0,7.3,1.75,7.87,4.98h-3.76c-.76-1.65-2.17-2.36-3.99-2.36-2.95,0-4.7,2.03-4.7,4.6s1.79,4.62,4.77,4.62c2.11,0,3.61-.88,4.24-2.72h-3.38v-2.53h6.83v7.49Z"/>
        <path class="cls-3" d="m144.15,18.36h3.52c2.13,4.58,4.28,9.14,6.43,13.71h-3.82l-1.31-2.97h-6.29l-1.27,2.97h-3.63c2.11-4.56,4.26-9.13,6.39-13.71Zm3.69,8.21l-2.05-4.7-2.02,4.7h4.07Z"/>
        <path class="cls-3" d="m155.27,18.36h3.37v13.71h-3.37v-13.71Z"/>
      </g>
      <path class="cls-2" d="m54.22,31.87c0-23.69,0-31.87,0-31.87H0v52.62s11.27,0,35.44,0c12.44,0,18.78-6.89,18.78-20.74Z"/>
      <polygon class="cls-1" points="54.22 0 0 0 0 52.62 54.22 0"/>
    </g>
    <g>
      <path class="cls-4" d="m17.58,21.1v10.89c0,.53.43.96.96.96h13.96c.53,0,.96-.43.96-.96v-13.96c0-.53-.43-.96-.96-.96h-13.96c-.53,0-.96.43-.96.96v.98"/>
      <polyline class="cls-4" points="21 30.97 19.57 30.97 19.57 19.07 26.95 19.07"/>
      <polyline class="cls-4" points="29.04 19.07 31.47 19.07 31.47 30.97 23.09 30.97"/>
      <g>
        <g>
          <path class="cls-4" d="m22.22,27.83l2.11-5.55c.04-.11.19-.11.24,0l2.09,5.55"/>
          <line class="cls-4" x1="22.88" y1="26.45" x2="26.02" y2="26.45"/>
        </g>
        <line class="cls-4" x1="28.81" y1="22.21" x2="28.81" y2="27.83"/>
      </g>
      <circle class="cls-4" cx="25.02" cy="10.14" r=".99"/>
      <circle class="cls-4" cx="29.98" cy="12.12" r=".99"/>
      <circle class="cls-4" cx="21.05" cy="11.13" r=".99"/>
      <line class="cls-4" x1="25.02" y1="17.08" x2="25.02" y2="11.13"/>
      <polyline class="cls-4" points="28 17.08 28 14.11 29.28 12.82"/>
      <polyline class="cls-4" points="21.05 12.12 21.05 15.1 23.04 17.08"/>
      <circle class="cls-4" cx="26.01" cy="39.9" r=".99"/>
      <circle class="cls-4" cx="21.05" cy="37.92" r=".99"/>
      <circle class="cls-4" cx="29.98" cy="38.91" r=".99"/>
      <line class="cls-4" x1="26.01" y1="32.96" x2="26.01" y2="38.91"/>
      <polyline class="cls-4" points="23.04 32.96 23.04 35.93 21.76 37.21"/>
      <polyline class="cls-4" points="29.98 37.92 29.98 34.94 28 32.96"/>
      <circle class="cls-4" cx="10.64" cy="25.52" r=".99"/>
      <circle class="cls-4" cx="12.62" cy="20.56" r=".99"/>
      <circle class="cls-4" cx="11.63" cy="29.48" r=".99"/>
      <line class="cls-4" x1="17.58" y1="25.52" x2="11.63" y2="25.52"/>
      <polyline class="cls-4" points="17.58 22.54 14.61 22.54 13.32 21.26"/>
      <polyline class="cls-4" points="12.62 29.48 15.6 29.48 17.58 27.5"/>
      <circle class="cls-4" cx="40.4" cy="24.52" r=".99"/>
      <circle class="cls-4" cx="38.41" cy="29.48" r=".99"/>
      <circle class="cls-4" cx="39.41" cy="20.56" r=".99"/>
      <line class="cls-4" x1="33.46" y1="24.52" x2="39.41" y2="24.52"/>
      <polyline class="cls-4" points="33.46 27.5 36.43 27.5 37.71 28.78"/>
      <polyline class="cls-4" points="38.41 20.56 35.44 20.56 33.46 22.54"/>
      <line class="cls-4" x1="35.71" y1="35.21" x2="33.17" y2="32.67"/>
      <line class="cls-4" x1="17.86" y1="17.36" x2="15.31" y2="14.81"/>
      <circle class="cls-4" cx="36.43" cy="35.93" r=".99"/>
      <circle class="cls-4" cx="14.61" cy="14.11" r=".99"/>
      <line class="cls-4" x1="35.71" y1="14.83" x2="33.17" y2="17.36"/>
      <line class="cls-4" x1="17.86" y1="32.68" x2="15.31" y2="35.23"/>
      <circle class="cls-4" cx="36.43" cy="14.11" r=".99"/>
      <circle class="cls-4" cx="14.61" cy="35.93" r=".99"/>
    </g>
  </g>
</svg>