<?xml version="1.0" encoding="UTF-8"?>
<svg id="Warstwa_2" data-name="Warstwa 2" xmlns="http://www.w3.org/2000/svg" viewBox="0 0 182.66 52.2">
  <defs>
    <style>
      .cls-1 {
        fill: #fff;
      }

      .cls-2 {
        fill: #004f9e;
      }

      .cls-3 {
        fill: #3d68af;
      }

      .cls-4 {
        fill: #1d1d1b;
      }
    </style>
  </defs>
  <g id="Warstwa_1-2" data-name="Warstwa 1">
    <g>
      <g>
        <path class="cls-4" d="m87.5,16.42c-.58,3.6-3.54,5.52-7.88,5.52-4.92,0-8.2-2.71-8.2-7.18s3.22-7.14,8.18-7.14c4.16,0,7.33,1.75,7.86,5.43h-3.71c-.43-1.83-1.98-2.83-4.13-2.83-3.15,0-4.56,2.2-4.56,4.56,0,2.52,1.62,4.58,4.58,4.58,2.13,0,3.67-1,4.11-2.94h3.75Z"/>
        <path class="cls-4" d="m93.74,16.27l-6.14-8.27h4.16l3.69,5.43,3.66-5.43h4.07l-6.11,8.27v5.31h-3.34v-5.31Z"/>
        <path class="cls-4" d="m104.14,8h9.1c2.64,0,4.22,1.22,4.22,3.45,0,1.3-.6,2.32-1.92,2.92,1.66.3,2.53,1.96,2.53,3.22,0,2.28-1.43,4-4.86,4h-9.06V8Zm7.48,5.48c1.39,0,2.3-.36,2.3-1.49s-1.24-1.47-2.2-1.47h-4.26v2.96h4.17Zm.41,5.56c1.64,0,2.43-.34,2.43-1.58,0-1.09-.68-1.64-2.32-1.64h-4.69v3.22h4.58Z"/>
        <path class="cls-4" d="m120.25,8h12.31v2.66h-8.99v2.66h8.08v2.51h-8.08v3.13h9.01v2.64h-12.32V8Z"/>
        <path class="cls-4" d="m134.74,8h8.56c3.64,0,4.96,1.41,4.96,3.66,0,1.71-.79,2.81-2.49,3.43,1.62.4,1.94,1.49,2.05,3.5.08,1.53.13,2.32.64,3h-3.69c-.25-.55-.23-.89-.32-2.28-.13-2.17-.7-2.75-2.37-2.75h-4.01v5.03h-3.32V8Zm7.31,5.96c1.17,0,2.6-.3,2.6-1.7,0-1.56-1.32-1.62-3.05-1.62h-3.54v3.32h4Z"/>
      </g>
      <g>
        <path class="cls-4" d="m82.59,42.46c-1.11.64-2.71.98-4.39.98-2.49,0-4.6-.79-5.73-2.17-.51-.66-.79-1.51-.83-2.6h1.9c0,.85.32,1.54.92,2.11.85.77,2.17,1.13,3.83,1.13,1.17,0,2.21-.15,2.92-.53.75-.42,1.28-1.09,1.28-1.94,0-1.07-.96-1.71-2.66-2.13-1.39-.36-2.85-.53-4.3-.9-1.88-.47-3.39-1.47-3.39-3.22,0-2.62,2.56-4,5.8-4,3.51,0,5.86,1.43,5.94,4.26h-1.9c-.13-1.85-1.66-2.77-4.11-2.77-2.05,0-3.71.74-3.71,2.32,0,.98.92,1.53,2.53,1.92,1.39.32,2.81.55,4.3.92,1.94.51,3.52,1.64,3.52,3.49,0,1.3-.83,2.47-1.92,3.13Z"/>
        <path class="cls-4" d="m87.45,43.07v-13.59h11.17v1.53h-9.16v4.33h8.67v1.53h-8.67v4.67h9.38v1.53h-11.4Z"/>
        <path class="cls-4" d="m113.21,38.03h2.04c-.45,3.49-2.81,5.41-6.82,5.41-2.02,0-3.79-.62-5.01-1.56-1.51-1.28-2.39-3.3-2.39-5.5s.9-4.22,2.43-5.54c1.23-.98,3.03-1.64,5.11-1.64,3.45,0,5.88,1.49,6.44,4.43h-2.04c-.23-.96-.68-1.64-1.41-2.11-.73-.49-1.88-.79-3.13-.79-3.56,0-5.39,2.41-5.39,5.58s1.87,5.62,5.48,5.62c1.9,0,3.37-.87,4.11-2.05.23-.47.49-1.13.58-1.83Z"/>
        <path class="cls-4" d="m124.51,43.44c-4,0-6.41-1.66-6.41-4.84v-9.12h2.02v9.12c0,1.28.58,2.19,1.66,2.75.72.38,1.62.57,2.73.57,2.73,0,4.28-1.21,4.28-3.32v-9.12h2.02v9.12c0,3.07-2.37,4.84-6.29,4.84Z"/>
        <path class="cls-4" d="m145.41,43.07c-.24-.4-.56-1.28-.6-2.11-.02-.19-.04-.45-.08-1.28-.13-1.43-.79-2.43-2.77-2.43h-5.39v5.82h-2.02v-13.59h7.31c3.11,0,5.14,1.34,5.14,3.6,0,1.58-.85,2.75-2.68,3.35.75.21,1.36.55,1.7.96.4.51.55,1.22.6,2.22.06,1.19.17,2.37.83,3.45h-2.05Zm-1.54-11.65c-.75-.4-1.85-.42-2.69-.42h-4.6v4.71h4.84c1.96,0,3.54-.51,3.54-2.37,0-.83-.4-1.51-1.09-1.92Z"/>
        <path class="cls-4" d="m150.59,43.07v-13.59h2.02v13.59h-2.02Z"/>
        <path class="cls-4" d="m162.27,31v12.06h-2.02v-12.06h-5.41v-1.53h12.83v1.53h-5.41Z"/>
        <path class="cls-4" d="m176.48,37.62h-.02v5.45h-2.02v-5.45h-.02c-2.09-2.71-4.22-5.43-6.31-8.14h2.51l4.84,6.54h.08l4.73-6.54h2.39l-6.18,8.14Z"/>
      </g>
      <g>
        <path class="cls-2" d="m53.79,31.62c0-23.5,0-31.62,0-31.62H0v52.2s11.18,0,35.16,0c12.34,0,18.63-6.84,18.63-20.58Z"/>
        <polygon class="cls-3" points="53.79 0 0 0 0 52.2 53.79 0"/>
        <g>
          <circle class="cls-1" cx="36.95" cy="37.3" r="5.03"/>
          <circle class="cls-1" cx="25.69" cy="37.3" r="3.82"/>
          <circle class="cls-1" cx="14.34" cy="37.3" r="2.37"/>
          <circle class="cls-1" cx="14.34" cy="14.54" r="5.03"/>
          <circle class="cls-1" cx="25.69" cy="14.54" r="3.82"/>
          <circle class="cls-1" cx="36.95" cy="14.54" r="2.37"/>
          <circle class="cls-1" cx="14.34" cy="26.32" r="3.82"/>
          <circle class="cls-1" cx="25.69" cy="26.32" r="3.82"/>
          <circle class="cls-1" cx="36.95" cy="26.32" r="3.82"/>
        </g>
      </g>
    </g>
  </g>
</svg>