<?xml version="1.0" encoding="UTF-8"?>
<svg id="Warstwa_2" data-name="Warstwa 2" xmlns="http://www.w3.org/2000/svg" viewBox="0 0 158.07 52.2">
  <defs>
    <style>
      .cls-1 {
        fill: #fff;
      }

      .cls-2 {
        fill: #004f9e;
      }

      .cls-3 {
        fill: #3d68af;
      }

      .cls-4 {
        fill: #20191b;
      }
    </style>
  </defs>
  <g id="Warstwa_1-2" data-name="Warstwa 1">
    <g>
      <g>
        <path class="cls-4" d="m70.23,9.5h5.82c.99,0,1.87.04,2.71.09,3.84.32,6.04,2.77,6.04,6.6,0,2.83-1.27,5.13-3.43,6.14-1.2.56-2.73.65-4.66.65h-6.49v-13.49Zm6.68,10.87c2.99,0,4.34-1.27,4.34-4.15s-1.38-4.08-4.44-4.08h-3.24v8.23h3.33Z"/>
        <path class="cls-4" d="m91.23,9.5h3.46c2.1,4.51,4.21,9,6.32,13.49h-3.76l-1.29-2.92h-6.19l-1.25,2.92h-3.57c2.08-4.49,4.19-8.98,6.29-13.49Zm3.63,8.08l-2.02-4.62-1.98,4.62h4Z"/>
        <path class="cls-4" d="m105.63,12.14h-4.75v-2.64h12.82v2.64h-4.77v10.85h-3.29v-10.85Z"/>
        <path class="cls-4" d="m119.86,9.5h3.46c2.1,4.51,4.21,9,6.32,13.49h-3.76l-1.29-2.92h-6.19l-1.25,2.92h-3.57c2.08-4.49,4.19-8.98,6.29-13.49Zm3.63,8.08l-2.02-4.62-1.98,4.62h4Z"/>
        <path class="cls-4" d="m82.01,39h2.02c-.45,3.46-2.79,5.37-6.77,5.37-2,0-3.76-.62-4.98-1.55-1.5-1.27-2.38-3.27-2.38-5.46s.9-4.19,2.42-5.5c1.22-.97,3.01-1.63,5.07-1.63,3.42,0,5.84,1.48,6.4,4.4h-2.02c-.22-.95-.67-1.63-1.4-2.1-.73-.49-1.87-.79-3.11-.79-3.54,0-5.35,2.39-5.35,5.54s1.85,5.57,5.44,5.57c1.89,0,3.35-.86,4.08-2.04.22-.47.49-1.12.58-1.81Z"/>
        <path class="cls-4" d="m87,44v-13.49h11.09v1.52h-9.09v4.3h8.61v1.52h-8.61v4.64h9.32v1.52h-11.32Z"/>
        <path class="cls-4" d="m111.6,44l-8.44-10.89h-.09v10.89h-1.89v-13.49h2.17l2.6,3.35,5.93,7.63h.09v-10.98h1.89v13.49h-2.26Z"/>
        <path class="cls-4" d="m123.3,32.03v11.97h-2v-11.97h-5.37v-1.52h12.74v1.52h-5.37Z"/>
        <path class="cls-4" d="m130.87,44v-13.49h11.09v1.52h-9.09v4.3h8.61v1.52h-8.61v4.64h9.32v1.52h-11.32Z"/>
        <path class="cls-4" d="m156.03,44c-.24-.39-.56-1.27-.6-2.09-.02-.19-.04-.45-.08-1.27-.13-1.42-.79-2.41-2.75-2.41h-5.35v5.78h-2v-13.49h7.26c3.08,0,5.11,1.33,5.11,3.57,0,1.57-.84,2.73-2.66,3.33.75.21,1.35.54,1.68.95.39.5.54,1.22.6,2.21.06,1.18.17,2.36.82,3.42h-2.04Zm-1.53-11.56c-.75-.39-1.83-.41-2.67-.41h-4.56v4.68h4.81c1.95,0,3.52-.5,3.52-2.36,0-.82-.39-1.5-1.08-1.91Z"/>
      </g>
      <path class="cls-2" d="m53.79,31.62c0-23.5,0-31.62,0-31.62H0v52.2s11.18,0,35.16,0c12.34,0,18.63-6.84,18.63-20.58Z"/>
      <polygon class="cls-3" points="53.79 0 0 0 0 52.2 53.79 0"/>
      <g>
        <circle class="cls-1" cx="36.95" cy="37.3" r="5.03"/>
        <circle class="cls-1" cx="25.69" cy="37.3" r="3.82"/>
        <circle class="cls-1" cx="14.34" cy="37.3" r="2.37"/>
        <circle class="cls-1" cx="14.34" cy="14.54" r="5.03"/>
        <circle class="cls-1" cx="25.69" cy="14.54" r="3.82"/>
        <circle class="cls-1" cx="36.95" cy="14.54" r="2.37"/>
        <circle class="cls-1" cx="14.34" cy="26.32" r="3.82"/>
        <circle class="cls-1" cx="25.69" cy="26.32" r="3.82"/>
        <circle class="cls-1" cx="36.95" cy="26.32" r="3.82"/>
      </g>
    </g>
  </g>
</svg>