<?xml version="1.0" encoding="UTF-8"?>
<svg id="Warstwa_2" data-name="Warstwa 2" xmlns="http://www.w3.org/2000/svg" viewBox="0 0 161.64 52.62">
  <defs>
    <style>
      .cls-1 {
        stroke-width: .22px;
      }

      .cls-1, .cls-2 {
        fill: #fff;
        stroke: #fff;
        stroke-miterlimit: 10;
      }

      .cls-2 {
        stroke-width: .5px;
      }

      .cls-3 {
        fill: #17c0eb;
      }

      .cls-4 {
        fill: #18dcff;
      }

      .cls-5 {
        fill: #1d1d1b;
      }
    </style>
  </defs>
  <g id="Warstwa_1-2" data-name="Warstwa 1">
    <g>
      <g>
        <g>
          <path class="cls-5" d="m84.23,29.02c-1.03,2.28-3.16,3.38-6.24,3.38-3.9,0-6.35-1.86-6.35-5.23s2.45-5.36,6.33-5.36c4.07,0,6.39,2.11,6.39,5.68v.4h-9.3c.06,1.44,1.08,2.47,2.98,2.47,1.27,0,2.07-.42,2.62-1.35h3.56Zm-3.33-3.02c-.09-1.1-1.14-2.13-2.87-2.13s-2.78,1.08-2.87,2.13h5.74Z"/>
          <path class="cls-5" d="m91.2,18.36h3.52c2.13,4.58,4.28,9.14,6.43,13.71h-3.82l-1.31-2.97h-6.29l-1.27,2.97h-3.63c2.11-4.56,4.26-9.13,6.39-13.71Zm3.69,8.21l-2.05-4.7-2.02,4.7h4.07Z"/>
          <path class="cls-5" d="m102.3,18.36h5.91c1.01,0,1.9.04,2.76.1,3.9.32,6.14,2.81,6.14,6.71,0,2.87-1.29,5.21-3.48,6.24-1.22.57-2.78.67-4.73.67h-6.6v-13.71Zm6.79,11.05c3.04,0,4.41-1.29,4.41-4.22s-1.41-4.15-4.51-4.15h-3.29v8.37h3.38Z"/>
          <path class="cls-5" d="m119.33,18.36h4.62l4.79,9.96,4.79-9.96h4.62v13.71h-3.29v-9.79l-4.7,9.79h-2.93l-4.66-9.83v9.83h-3.25v-13.71Z"/>
          <path class="cls-5" d="m141,18.36h3.37v13.71h-3.37v-13.71Z"/>
          <path class="cls-5" d="m147.2,18.36h3.88l7.32,9.47h.02v-9.47h3.23v13.71h-3.78l-7.41-9.47v9.47h-3.25v-13.71Z"/>
        </g>
        <path class="cls-3" d="m54.22,31.87c0-23.69,0-31.87,0-31.87H0v52.62s11.27,0,35.44,0c12.44,0,18.78-6.89,18.78-20.74Z"/>
        <polygon class="cls-4" points="54.22 0 0 0 0 52.62 54.22 0"/>
      </g>
      <g>
        <path class="cls-2" d="m26.16,16.43c-5.62,0-10.18,4.57-10.18,10.18s4.57,10.18,10.18,10.18,10.18-4.57,10.18-10.18-4.57-10.18-10.18-10.18Zm-5.13,17.64v-3.57c0-1.1.82-2.02,1.91-2.16,1.44,1.68,3.93,1.96,5.72.66.26-.19.5-.41.71-.66,1.09.13,1.91,1.06,1.91,2.16v3.57c-1.5,1-3.23,1.59-5.13,1.59s-3.63-.59-5.13-1.59Zm11.39-.93v-2.64c0-1.83-1.49-3.31-3.32-3.31-.18,0-.35.09-.46.23-.58.79-1.51,1.26-2.49,1.26s-1.91-.47-2.49-1.26c-.11-.15-.28-.23-.46-.23-1.83,0-3.31,1.48-3.32,3.31v2.64c-1.78-1.71-2.78-4.06-2.78-6.52,0-4.99,4.06-9.05,9.05-9.05s9.05,4.06,9.05,9.05c0,2.46-1.01,4.82-2.78,6.52Z"/>
        <path class="cls-2" d="m39.98,28.21c.14-1.27.1-2.55-.1-3.81l1.58-1.51c.17-.17.22-.42.13-.64l-1.79-4.1c-.1-.22-.32-.36-.56-.34l-2.18.16c-.79-1.01-1.72-1.9-2.76-2.63l.06-2.18c0-.24-.14-.46-.36-.55l-4.18-1.61c-.22-.09-.48-.02-.64.16l-1.41,1.64c-1.27-.14-2.55-.1-3.81.1l-1.51-1.58c-.17-.17-.42-.22-.64-.13l-4.1,1.8c-.22.1-.36.32-.34.56l.16,2.18c-1.01.79-1.9,1.72-2.63,2.76l-2.18-.06c-.24,0-.46.14-.55.36l-1.61,4.17c-.09.22-.02.48.16.64l1.64,1.41c-.14,1.27-.1,2.55.1,3.81l-1.58,1.51c-.17.17-.22.42-.13.64l1.79,4.1c.1.22.32.36.56.34l2.18-.16c.79,1.01,1.72,1.9,2.76,2.63l-.06,2.18c0,.24.14.46.36.55l4.18,1.61c.22.09.48.02.64-.16l1.41-1.64c1.27.14,2.55.1,3.81-.1l1.51,1.58c.17.17.42.22.64.13l4.1-1.79c.22-.1.36-.32.34-.56l-.16-2.18c1.01-.79,1.9-1.72,2.63-2.77l2.18.06c.24,0,.46-.14.55-.36l1.61-4.18c.09-.22.02-.48-.16-.64l-1.64-1.41Zm-.73,5.44l-2.09-.06c-.2,0-.38.09-.49.25-.75,1.13-1.7,2.13-2.79,2.93-.16.12-.24.3-.23.5l.15,2.09-3.37,1.47-1.45-1.51c-.13-.14-.33-.2-.51-.17-1.34.25-2.72.28-4.07.11-.19-.02-.38.05-.5.19l-1.35,1.56-3.42-1.32.06-2.09c0-.2-.09-.38-.25-.49-1.13-.75-2.13-1.7-2.93-2.79-.12-.16-.3-.24-.5-.23l-2.09.15-1.47-3.37,1.51-1.45c.14-.13.2-.33.17-.51-.25-1.34-.28-2.72-.11-4.07.02-.19-.05-.38-.19-.5l-1.56-1.35,1.32-3.42,2.09.06c.2,0,.38-.09.49-.25.75-1.13,1.7-2.13,2.79-2.93.16-.12.24-.3.23-.5l-.15-2.09,3.37-1.47,1.45,1.51c.13.14.33.2.51.17,1.34-.25,2.72-.28,4.07-.11.19.02.38-.05.5-.19l1.35-1.56,3.42,1.32-.06,2.09c0,.2.09.38.25.49,1.13.75,2.13,1.7,2.93,2.79.12.16.3.24.5.23l2.09-.15,1.47,3.37-1.51,1.45c-.14.13-.2.33-.17.51.25,1.34.28,2.72.11,4.07-.02.19.05.38.19.5l1.56,1.35-1.32,3.42Z"/>
        <path class="cls-2" d="m26.16,19.86c-2,0-3.62,1.62-3.62,3.62s1.62,3.62,3.62,3.62,3.62-1.62,3.62-3.62c0-2-1.62-3.61-3.62-3.62Zm0,6.1c-1.37,0-2.48-1.11-2.48-2.48s1.11-2.48,2.48-2.48,2.48,1.11,2.48,2.48c0,1.37-1.11,2.48-2.48,2.48Z"/>
      </g>
      <polygon class="cls-1" points="19.82 33.89 21.03 28.96 23.82 27.89 24.82 28.89 27.9 29.44 29.03 27.89 30.9 28.34 31.82 29.89 31.82 33.55 31.28 34.74 28.64 36.1 24.26 35.66 19.82 33.89"/>
      <polygon class="cls-1" points="23.68 22.4 23.68 24.62 25.37 26.61 28.64 25.35 28.64 23.08 28.18 21 26.16 20.44 23.68 22.4"/>
    </g>
  </g>
</svg>