<?xml version="1.0" encoding="UTF-8"?>
<svg id="Warstwa_2" data-name="Warstwa 2" xmlns="http://www.w3.org/2000/svg" viewBox="0 0 248.11 52.62">
  <defs>
    <style>
      .cls-1 {
        fill: #fff;
      }

      .cls-2 {
        fill: #ff4d4d;
      }

      .cls-3 {
        fill: #ff3838;
      }

      .cls-4 {
        fill: #1d1d1b;
      }
    </style>
  </defs>
  <g id="Warstwa_1-2" data-name="Warstwa 1">
    <g>
      <path class="cls-1" d="m108.78,30.26c.98,0,1.78-.8,1.78-1.78s-.8-1.78-1.78-1.78-1.78.8-1.78,1.78.8,1.78,1.78,1.78Z"/>
      <g>
        <g>
          <path class="cls-4" d="m84.23,29.02c-1.03,2.28-3.16,3.38-6.24,3.38-3.9,0-6.35-1.86-6.35-5.23s2.45-5.36,6.33-5.36c4.07,0,6.39,2.11,6.39,5.68v.4h-9.3c.06,1.44,1.08,2.47,2.98,2.47,1.27,0,2.07-.42,2.62-1.35h3.56Zm-3.33-3.02c-.09-1.1-1.14-2.13-2.87-2.13s-2.78,1.08-2.87,2.13h5.74Z"/>
          <path class="cls-4" d="m86.45,18.36h5.91c1.01,0,1.9.04,2.76.1,3.9.32,6.14,2.81,6.14,6.71,0,2.87-1.29,5.21-3.48,6.24-1.22.57-2.78.67-4.73.67h-6.6v-13.71Zm6.79,11.05c3.04,0,4.41-1.29,4.41-4.22s-1.41-4.15-4.51-4.15h-3.29v8.37h3.38Z"/>
          <path class="cls-4" d="m102.51,29.44l9.32-8.42h-8.92v-2.66h13.58v2.64l-9.35,8.4h9.51v2.66h-14.13v-2.62Z"/>
          <path class="cls-4" d="m118.47,18.36h3.37v13.71h-3.37v-13.71Z"/>
          <path class="cls-4" d="m124.67,18.36h12.42v2.68h-9.07v2.68h8.16v2.53h-8.16v3.16h9.09v2.66h-12.43v-13.71Z"/>
          <path class="cls-4" d="m139.29,18.36h3.35v11.03h7.72v2.68h-11.07v-13.71Z"/>
          <path class="cls-4" d="m152.14,18.36h3.88l7.32,9.47h.02v-9.47h3.23v13.71h-3.78l-7.41-9.47v9.47h-3.25v-13.71Z"/>
          <path class="cls-4" d="m169.45,18.36h3.37v13.71h-3.37v-13.71Z"/>
          <path class="cls-4" d="m191.26,26.85c-.59,3.63-3.57,5.57-7.95,5.57-4.96,0-8.27-2.74-8.27-7.24s3.25-7.21,8.25-7.21c4.2,0,7.4,1.77,7.93,5.48h-3.75c-.44-1.84-2-2.85-4.16-2.85-3.17,0-4.6,2.22-4.6,4.6,0,2.55,1.64,4.62,4.62,4.62,2.15,0,3.71-1.01,4.15-2.97h3.78Z"/>
          <path class="cls-4" d="m200.91,17.98c5.59,0,8.35,3.29,8.35,7.28s-2.78,7.21-8.35,7.21-8.37-3.27-8.37-7.26,2.78-7.23,8.37-7.23Zm4.66,7.24c0-2.59-1.71-4.62-4.68-4.62s-4.68,2.01-4.68,4.6,1.73,4.64,4.7,4.64,4.66-2.01,4.66-4.62Z"/>
          <path class="cls-4" d="m224.75,32.06c-1.1-3.23-2.19-6.48-3.29-9.72l-3.38,9.72h-3.54c-1.54-4.56-3.1-9.13-4.62-13.71h3.61l2.95,9.56c1.08-3.19,2.17-6.37,3.23-9.56h3.57l3.18,9.56h.02l3.02-9.56h3.46l-4.7,13.71h-3.52Z"/>
          <path class="cls-4" d="m238.58,26.7l-6.2-8.35h4.2l3.73,5.48,3.69-5.48h4.11l-6.16,8.35v5.36h-3.37v-5.36Z"/>
        </g>
        <path class="cls-3" d="m54.22,31.87c0-23.69,0-31.87,0-31.87H0v52.62s11.27,0,35.44,0c12.44,0,18.78-6.89,18.78-20.74Z"/>
        <polygon class="cls-2" points="54.22 0 0 0 0 52.62 54.22 0"/>
      </g>
      <path class="cls-1" d="m27.96,27.72c2.66.35,5.11,1.66,6.89,3.71.43.5,1.18.55,1.68.12.5-.43.55-1.18.12-1.68-1.53-1.76-3.46-3.07-5.61-3.84,1.66-1.33,2.73-3.38,2.73-5.67,0-1.22-.3-2.4-.87-3.45.3-.21.7-.51,1.1-.84,1.34-1.1,1.92-1.91,1.92-2.71,0-1.09-1.15-1.64-1.64-1.87-.6-.29-1.43-.6-2.51-.94-.15-.05-.31-.1-.46-.15-1.6-.51-3.11-1-4.79-1-1.83,0-3.09.4-4.83.95-1.06.33-2.03.7-2.74,1.03-.99.46-1.9,1.01-1.9,1.97,0,.8.57,1.61,1.92,2.71.41.33.81.63,1.11.85,0,.02.01.04.01.07-.55,1.04-.84,2.2-.84,3.38,0,2.29,1.07,4.34,2.73,5.67-1.44.52-2.8,1.28-4,2.27-2.36,1.95-4,4.66-4.62,7.64-.2.97.04,1.97.67,2.74.62.76,1.54,1.2,2.53,1.2h3.58c.66,0,1.19-.53,1.19-1.19s-.53-1.19-1.19-1.19h-3.58c-.36,0-.58-.2-.68-.32-.17-.21-.24-.49-.18-.76.96-4.62,4.78-8.09,9.36-8.71l-2.08,8.31c-.1.41.02.84.31,1.13l2.38,2.38c.22.22.53.35.84.35s.62-.13.84-.35l2.38-2.38c.3-.3.41-.72.31-1.13l-2.08-8.31Zm-8.19-14.1c.53-.25,1.39-.61,2.62-.99,1.65-.52,2.64-.84,4.11-.84,1.31,0,2.59.41,4.07.88.15.05.31.1.47.15,1.09.35,1.75.61,2.14.79-.43.42-1.15,1.01-1.87,1.5-.99-.38-2.66-.84-4.81-.84s-3.86.47-4.87.85c-.72-.49-1.43-1.07-1.86-1.5Zm10.33,3.59c-.62.6-1.84,1.07-3.6,1.07s-2.99-.46-3.64-1.07c.83-.27,2.08-.56,3.64-.56s2.79.29,3.6.56Zm-8.48,3.15c0-.34.04-.68.1-1.01.09.06.17.12.26.18,1.17.74,2.73,1.13,4.52,1.13s3.34-.39,4.49-1.13c.1-.06.19-.13.28-.19.07.33.11.68.11,1.03,0,2.69-2.19,4.88-4.88,4.88s-4.88-2.19-4.88-4.88Zm4.88,16.66l-1.06-1.06,1.06-4.25,1.06,4.25-1.06,1.06Zm12.47,1.67c-.62.77-1.54,1.2-2.52,1.2h-3.52c-.66,0-1.19-.53-1.19-1.19s.53-1.19,1.19-1.19h3.52c.35,0,.57-.2.67-.33.18-.22.25-.51.19-.78-.13-.64.28-1.27.92-1.41.64-.13,1.27.28,1.41.92.2.98-.04,1.99-.68,2.77Z"/>
    </g>
  </g>
</svg>