<?xml version="1.0" encoding="UTF-8"?>
<svg id="Warstwa_2" data-name="Warstwa 2" xmlns="http://www.w3.org/2000/svg" viewBox="0 0 215.87 52.62">
  <defs>
    <style>
      .cls-1 {
        fill: #fff;
      }

      .cls-2 {
        fill: #fed330;
      }

      .cls-3 {
        fill: #f7b731;
      }

      .cls-4 {
        fill: #1d1d1b;
      }
    </style>
  </defs>
  <g id="Warstwa_1-2" data-name="Warstwa 1">
    <g>
      <path class="cls-1" d="m108.78,30.26c.98,0,1.78-.8,1.78-1.78s-.8-1.78-1.78-1.78-1.78.8-1.78,1.78.8,1.78,1.78,1.78Z"/>
      <g>
        <g>
          <path class="cls-4" d="m72.38,18.36h11.92v2.66h-8.57v2.95h7.85v2.57h-7.85v5.53h-3.35v-13.71Z"/>
          <path class="cls-4" d="m92.09,21.82c4.05,0,6.65,1.96,6.65,5.3s-2.62,5.32-6.64,5.32-6.65-1.96-6.65-5.36,2.62-5.27,6.64-5.27Zm0,8.4c2.02,0,3.27-1.16,3.27-3.08s-1.25-3.1-3.27-3.1-3.27,1.18-3.27,3.1,1.25,3.08,3.27,3.08Z"/>
          <path class="cls-4" d="m99.58,24.4v-2.22h1.73v-3.12h3.19v3.12h2.47v2.22h-2.47v4.18c0,1.06.17,1.29,1.22,1.29.44,0,.86-.02,1.27-.02v2.3c-.63,0-1.27.04-1.92.04h-.15c-2.78,0-3.61-.72-3.61-2.64v-5.15h-1.73Z"/>
          <path class="cls-4" d="m114.64,21.82c4.05,0,6.65,1.96,6.65,5.3s-2.62,5.32-6.64,5.32-6.65-1.96-6.65-5.36,2.62-5.27,6.64-5.27Zm0,8.4c2.02,0,3.27-1.16,3.27-3.08s-1.25-3.1-3.27-3.1-3.27,1.18-3.27,3.1,1.25,3.08,3.27,3.08Z"/>
          <path class="cls-4" d="m121.89,22.18h3.54c.8,2.17,1.58,4.35,2.4,6.5.78-2.17,1.58-4.34,2.38-6.5h3.14c.78,2.19,1.56,4.35,2.36,6.5l2.4-6.5h3.42l-4.15,9.89h-3.31l-2.34-6.12-2.38,6.12h-3.29l-4.16-9.89Z"/>
          <path class="cls-4" d="m148.77,21.82c4.05,0,6.65,1.96,6.65,5.3s-2.62,5.32-6.64,5.32-6.65-1.96-6.65-5.36,2.62-5.27,6.64-5.27Zm0,8.4c2.02,0,3.27-1.16,3.27-3.08s-1.25-3.1-3.27-3.1-3.27,1.18-3.27,3.1,1.25,3.08,3.27,3.08Z"/>
          <path class="cls-4" d="m157.38,18.36h3.19v13.71h-3.19v-13.71Z"/>
          <path class="cls-4" d="m162.02,24.4v-2.22h1.73v-3.12h3.19v3.12h2.47v2.22h-2.47v4.18c0,1.06.17,1.29,1.22,1.29.44,0,.86-.02,1.27-.02v2.3c-.63,0-1.27.04-1.92.04h-.15c-2.78,0-3.61-.72-3.61-2.64v-5.15h-1.73Z"/>
          <path class="cls-4" d="m171.29,25.45v-.02c0-2.93,3.4-3.59,5.65-3.59,1.45,0,3.29.21,4.41,1.16.87.72.91,1.79.91,2.81v4.43c0,.53.09,1.2.53,1.56v.27h-3.42c-.08-.38-.13-.74-.21-1.12-1.22,1.12-2.66,1.46-4.3,1.46-2.07,0-4.33-.78-4.33-3.14,0-2.13,2.43-2.76,4.68-3.1,2.07-.32,3.95-.42,3.95-1.25,0-1.01-1.48-1.07-2.24-1.07-1.18,0-2.32.27-2.38,1.6h-3.25Zm7.87,1.73c-.23.11-1.56.46-2.36.59-.82.13-2.85.32-2.85,1.39,0,.91.95,1.18,1.73,1.18,1.67,0,3.48-.76,3.48-2.62v-.53Z"/>
          <path class="cls-4" d="m184.71,20.69v-2.34h3.35v2.34h-3.35Zm.1,1.48h3.19v9.89h-3.19v-9.89Z"/>
          <path class="cls-4" d="m190.57,18.36h3.19v7.61l4.51-3.78h4.28l-4.85,3.88,5.17,6.01h-4.22l-3.4-4.05-1.48,1.14v2.91h-3.19v-13.71Z"/>
          <path class="cls-4" d="m204.37,25.45v-.02c0-2.93,3.4-3.59,5.65-3.59,1.45,0,3.29.21,4.41,1.16.87.72.91,1.79.91,2.81v4.43c0,.53.1,1.2.53,1.56v.27h-3.42c-.08-.38-.13-.74-.21-1.12-1.22,1.12-2.66,1.46-4.3,1.46-2.07,0-4.33-.78-4.33-3.14,0-2.13,2.43-2.76,4.68-3.1,2.07-.32,3.95-.42,3.95-1.25,0-1.01-1.48-1.07-2.24-1.07-1.18,0-2.32.27-2.38,1.6h-3.25Zm7.87,1.73c-.23.11-1.56.46-2.36.59-.82.13-2.85.32-2.85,1.39,0,.91.95,1.18,1.73,1.18,1.67,0,3.48-.76,3.48-2.62v-.53Z"/>
        </g>
        <path class="cls-3" d="m54.22,31.87c0-23.69,0-31.87,0-31.87H0v52.62s11.27,0,35.44,0c12.44,0,18.78-6.89,18.78-20.74Z"/>
        <polygon class="cls-2" points="54.22 0 0 0 0 52.62 54.22 0"/>
      </g>
      <g>
        <path class="cls-1" d="m24.76,27.23c-.01.7.55,1.26,1.24,1.26h1.94c.67-.02,1.21-.55,1.23-1.22v-2.33s-4.41.03-4.41.03c0,.03,0,2.24,0,2.26Z"/>
        <path class="cls-1" d="m26.91,17.93c-4.13.03-7.47,3.42-7.44,7.55s3.42,7.47,7.55,7.44c4.13-.03,7.47-3.42,7.44-7.55s-3.42-7.47-7.55-7.44h0Zm4.56,6.99h-.47s0,2.36,0,2.36c0,0,0,.01,0,.02-.03,1.66-1.38,2.99-3.04,3.01h-1.94c-1.72.03-3.11-1.38-3.08-3.1v-2.23s-.48,0-.48,0c-.5,0-.92-.4-.92-.91s.4-.92.91-.92h1.13s-.01-1.68-.01-1.68c0-.5.4-.92.91-.92s.92.4.92.91v1.67s3.12-.02,3.12-.02v-1.67c-.02-.5.39-.92.9-.92s.92.4.92.91v1.67s1.14,0,1.14,0c.5,0,.92.4.92.91s-.4.92-.91.92h0Z"/>
        <path class="cls-1" d="m40.93,28.71l-.68-.39c-2.26-1.28-2.28-4.67-.04-5.98l.68-.4c.87-.51,1.16-1.63.65-2.5l-2.24-3.82c-.51-.87-1.63-1.16-2.5-.65l-.67.4c-2.23,1.31-5.19-.33-5.2-2.95v-.79c-.01-1.01-.84-1.82-1.85-1.81l-4.42.03c-1.01,0-1.82.83-1.81,1.84v.79c.02,2.61-2.91,4.3-5.16,3.02l-.68-.39c-.88-.5-1.99-.19-2.49.69l-2.19,3.85c-.5.88-.19,1.99.69,2.49l.68.39c2.26,1.28,2.28,4.67.04,5.98l-.68.4c-.87.51-1.16,1.63-.65,2.5l2.24,3.82c.51.87,1.63,1.16,2.5.65l.67-.4c1.04-.61,2.35-.61,3.42,0l.05.03c1.06.6,1.72,1.72,1.73,2.92v.79c.01,1.01.84,1.82,1.85,1.81l4.42-.03c1.01,0,1.82-.83,1.81-1.84v-.79c-.02-2.61,2.91-4.3,5.16-3.02l.68.39c.88.5,1.99.19,2.49-.69l2.19-3.85c.5-.88.19-1.99-.69-2.49h0Zm-13.9,6.04c-5.14.04-9.35-4.12-9.39-9.26s4.12-9.35,9.26-9.39c5.14-.04,9.35,4.12,9.39,9.26s-4.12,9.35-9.26,9.39h0Z"/>
      </g>
    </g>
  </g>
</svg>