<?xml version="1.0" encoding="UTF-8"?>
<svg id="Warstwa_2" data-name="Warstwa 2" xmlns="http://www.w3.org/2000/svg" viewBox="0 0 130.79 53.36">
  <defs>
    <style>
      .cls-1 {
        fill: #fff;
        fill-rule: evenodd;
      }

      .cls-2 {
        fill: #3ae374;
      }

      .cls-3 {
        fill: #32ff7e;
      }

      .cls-4 {
        fill: #1d1d1b;
      }
    </style>
  </defs>
  <g id="Warstwa_1-2" data-name="Warstwa 1">
    <g>
      <g>
        <path class="cls-4" d="m71.77,9.92h3.32v5.24h6.99v-5.24h3.32v13.59h-3.32v-5.73h-6.99v5.73h-3.32v-13.59Z"/>
        <path class="cls-4" d="m88.2,9.92h12.31v2.66h-8.99v2.66h8.08v2.51h-8.08v3.13h9.01v2.64h-12.32v-13.59Z"/>
        <path class="cls-4" d="m102.69,9.92h3.32v10.93h7.65v2.66h-10.97v-13.59Z"/>
        <path class="cls-4" d="m115.43,9.92h8.05c3.71,0,5.35,1.79,5.35,4.5,0,3.69-2.58,4.65-5.63,4.65h-4.45v4.43h-3.32v-13.59Zm6.99,6.6c1.92,0,2.86-.43,2.86-2,0-1.85-1.21-1.98-3.2-1.98h-3.34v3.98h3.67Z"/>
      </g>
      <g>
        <path class="cls-4" d="m78.2,44.98h-5.88v-13.59h5.88c4.56,0,7.18,2.34,7.18,6.63s-2.45,6.95-7.18,6.95Zm-.06-12.06h-3.83v10.54h3.79c2.39,0,5.26-1.09,5.26-5.3,0-3.35-1.56-5.24-5.22-5.24Z"/>
        <path class="cls-4" d="m88.46,44.98v-13.59h11.17v1.53h-9.16v4.33h8.67v1.53h-8.67v4.67h9.38v1.53h-11.4Z"/>
        <path class="cls-4" d="m112.9,44.38c-1.11.64-2.71.98-4.39.98-2.49,0-4.6-.79-5.73-2.17-.51-.66-.79-1.51-.83-2.6h1.9c0,.85.32,1.54.92,2.11.85.77,2.17,1.13,3.83,1.13,1.17,0,2.21-.15,2.92-.53.75-.42,1.28-1.09,1.28-1.94,0-1.07-.96-1.71-2.66-2.13-1.39-.36-2.85-.53-4.3-.91-1.88-.47-3.39-1.47-3.39-3.22,0-2.62,2.56-4,5.8-4,3.51,0,5.86,1.43,5.94,4.26h-1.9c-.13-1.85-1.66-2.77-4.11-2.77-2.05,0-3.71.74-3.71,2.32,0,.98.92,1.53,2.53,1.92,1.39.32,2.81.55,4.3.92,1.94.51,3.52,1.64,3.52,3.49,0,1.3-.83,2.47-1.92,3.13Z"/>
        <path class="cls-4" d="m128.26,44.98l-5.84-6.92h-.08l-2.69,2.17h-.02v4.75h-2v-13.59h2v6.82h.09l8.22-6.82h2.66l-6.77,5.5,6.95,8.08h-2.53Z"/>
      </g>
      <path class="cls-2" d="m54.99,32.33V0H0v53.36h35.95c12.61,0,19.04-6.99,19.04-21.03"/>
      <polygon class="cls-3" points="54.99 0 0 0 0 53.36 54.99 0"/>
      <g id="feedback-Copy">
        <path id="Vector" class="cls-1" d="m40.12,10.05h-8.72c-.9,0-1.67.32-2.31.96s-.96,1.41-.96,2.31v10.89c0,.11.02.22.05.33.03.11.08.21.15.3.17.25.41.4.7.45.3.05.57,0,.81-.18l3.45-2.42h6.82c.9,0,1.67-.32,2.31-.96s.96-1.41.96-2.31v-6.1c0-2.18-1.09-3.27-3.27-3.27Zm-23.46,11.4c-1.06,1.06-1.6,2.35-1.6,3.85s.53,2.79,1.6,3.85c1.06,1.06,2.35,1.6,3.85,1.6s2.79-.53,3.85-1.6,1.6-2.35,1.6-3.85-.53-2.79-1.6-3.85-2.35-1.6-3.85-1.6-2.79.53-3.85,1.6Zm-2.86,10.39c-.94,0-1.7.33-2.3,1-.65.72-.86,1.56-.63,2.5,1.21,4.93,4.44,7.39,9.7,7.39s8.5-2.46,9.74-7.39c.24-.95.03-1.78-.62-2.51-.6-.67-1.37-1-2.3-1h-2.92c-1.17.73-2.49,1.09-3.96,1.09s-2.79-.36-3.96-1.09h-2.75Z"/>
      </g>
    </g>
  </g>
</svg>