<svg xmlns="http://www.w3.org/2000/svg" width="53" height="53" viewBox="0 0 53 53">
  <g id="Group_87" data-name="Group 87" transform="translate(-1515 -1453)">
    <g id="Group_54" data-name="Group 54" transform="translate(15 312)">
      <g id="Ellipse_13" data-name="Ellipse 13" transform="translate(1500 1141)" fill="none" stroke="#22bb2d" stroke-width="2">
        <circle cx="26.5" cy="26.5" r="26.5" stroke="none"/>
        <circle cx="26.5" cy="26.5" r="25.5" fill="none"/>
      </g>
      <g id="Layer_2" data-name="Layer 2" transform="translate(1541 1183) rotate(180)">
        <g id="invisible_box" data-name="invisible box">
          <rect id="Rectangle_76" data-name="Rectangle 76" width="31" height="31" fill="none"/>
        </g>
        <g id="icons_Q2" data-name="icons Q2" transform="translate(10.284 6.445)">
          <path id="Path_346" data-name="Path 346" d="M23.2,19.022l-6.831,6.831a1.224,1.224,0,0,0,.129,1.933,1.353,1.353,0,0,0,1.74-.129l7.668-7.733a1.224,1.224,0,0,0,0-1.8l-7.668-7.733a1.353,1.353,0,0,0-1.74-.129,1.224,1.224,0,0,0-.129,1.933Z" transform="translate(-15.959 -10.001)" fill="#22bb2d"/>
        </g>
      </g>
    </g>
  </g>
</svg>
