<?xml version="1.0" encoding="UTF-8"?>
<svg id="Warstwa_2" data-name="Warstwa 2" xmlns="http://www.w3.org/2000/svg" viewBox="0 0 178.44 53.38">
  <defs>
    <style>
      .cls-1 {
        fill: #fff;
      }

      .cls-2 {
        fill: #0505d8;
      }

      .cls-3 {
        fill: #1d1d1b;
      }

      .cls-4 {
        fill: #1c3ffc;
      }
    </style>
  </defs>
  <g id="Warstwa_1-2" data-name="Warstwa 1">
    <g>
      <g>
        <path class="cls-3" d="m71.8,9.93h4.58l4.75,9.88,4.75-9.88h4.58v13.59h-3.26v-9.71l-4.65,9.71h-2.9l-4.62-9.74v9.74h-3.22v-13.59Z"/>
        <path class="cls-3" d="m97.97,9.93h3.49c2.11,4.54,4.24,9.06,6.37,13.59h-3.79l-1.3-2.94h-6.24l-1.26,2.94h-3.6c2.09-4.52,4.22-9.05,6.33-13.59Zm3.66,8.14l-2.04-4.65-2,4.65h4.03Z"/>
        <path class="cls-3" d="m124.44,18.35c-.58,3.6-3.54,5.52-7.88,5.52-4.92,0-8.2-2.71-8.2-7.18s3.22-7.14,8.18-7.14c4.16,0,7.33,1.75,7.86,5.43h-3.71c-.43-1.83-1.98-2.83-4.13-2.83-3.15,0-4.56,2.2-4.56,4.56,0,2.52,1.62,4.58,4.58,4.58,2.13,0,3.67-1,4.11-2.94h3.75Z"/>
        <path class="cls-3" d="m126.38,9.93h3.32v5.24h6.99v-5.24h3.32v13.59h-3.32v-5.73h-6.99v5.73h-3.32v-13.59Z"/>
        <path class="cls-3" d="m142.83,9.93h3.34v13.59h-3.34v-13.59Z"/>
        <path class="cls-3" d="m148.97,9.93h3.84l7.26,9.38h.02v-9.38h3.2v13.59h-3.75l-7.35-9.38v9.38h-3.22v-13.59Z"/>
        <path class="cls-3" d="m166.12,9.93h12.31v2.66h-8.99v2.66h8.08v2.51h-8.08v3.13h9.01v2.64h-12.32v-13.59Z"/>
      </g>
      <g>
        <path class="cls-3" d="m81.69,38.21c-.9,2.19-1.96,4.62-2.86,6.78h-2.24l-5.8-13.59h2.19c1.56,3.88,3.15,7.76,4.75,11.65h.11c1.53-3.88,3.09-7.76,4.62-11.65h2.13l-2.88,6.8Z"/>
        <path class="cls-3" d="m86.96,45v-13.59h2.02v13.59h-2.02Z"/>
        <path class="cls-3" d="m102.87,44.39c-1.11.64-2.71.98-4.39.98-2.49,0-4.6-.79-5.73-2.17-.51-.66-.79-1.51-.83-2.6h1.9c0,.85.32,1.54.92,2.11.85.77,2.17,1.13,3.83,1.13,1.17,0,2.21-.15,2.92-.53.75-.42,1.28-1.09,1.28-1.94,0-1.07-.96-1.71-2.66-2.13-1.39-.36-2.85-.53-4.3-.9-1.88-.47-3.39-1.47-3.39-3.22,0-2.62,2.56-4,5.8-4,3.51,0,5.86,1.43,5.94,4.26h-1.9c-.13-1.85-1.66-2.77-4.11-2.77-2.05,0-3.71.74-3.71,2.32,0,.98.92,1.53,2.53,1.92,1.39.32,2.81.55,4.3.92,1.94.51,3.52,1.64,3.52,3.49,0,1.3-.83,2.47-1.92,3.13Z"/>
        <path class="cls-3" d="m107.88,45v-13.59h2.02v13.59h-2.02Z"/>
        <path class="cls-3" d="m125.52,43.94c-1.28.91-2.98,1.43-4.98,1.43-4.92,0-7.78-3.15-7.78-7.12s2.86-7.12,7.76-7.12,7.8,3.15,7.8,7.18c0,2.24-1.02,4.35-2.81,5.63Zm-4.99-11.29c-3.75,0-5.77,2.54-5.77,5.6s2.02,5.6,5.79,5.6,5.79-2.54,5.79-5.56-2.02-5.63-5.8-5.63Z"/>
        <path class="cls-3" d="m141.49,45l-8.5-10.97h-.09v10.97h-1.9v-13.59h2.19l2.62,3.37,5.97,7.69h.09v-11.06h1.9v13.59h-2.28Z"/>
      </g>
      <path class="cls-4" d="m55.01,32.34V0H0v53.38h35.96c12.62,0,19.05-6.99,19.05-21.04"/>
      <polygon class="cls-2" points="55.01 0 0 0 0 53.38 55.01 0"/>
      <path class="cls-1" d="m22.09,23.33c.42,0,.77-.34.77-.77s-.35-.77-.77-.77-.77.34-.77.77.34.77.77.77"/>
      <path class="cls-1" d="m26.71,19.49c-.81,0-1.69.15-2.48.46-.4.16-.59.6-.44,1,.15.37.55.61,1.07.41.59-.22,1.24-.32,1.85-.32,2.97,0,5.38,2.42,5.38,5.38s-2.4,5.38-5.38,5.38-5.38-2.41-5.38-5.38c0-.36.03-.64.09-.98.08-.42-.2-.81-.61-.89-.41-.08-.82.2-.9.61-.08.42-.11.86-.11,1.26,0,3.81,3.1,6.92,6.92,6.92s6.92-3.12,6.92-6.92-3.1-6.92-6.92-6.92"/>
      <path class="cls-1" d="m29.78,26.4c0-1.7-1.38-3.08-3.08-3.08s-3.08,1.38-3.08,3.08,1.38,3.08,3.08,3.08,3.08-1.38,3.08-3.08m-4.61,0c0-.85.69-1.54,1.54-1.54s1.54.69,1.54,1.54-.69,1.54-1.54,1.54-1.54-.69-1.54-1.54"/>
      <path class="cls-1" d="m46.06,24.73c-.11-.64-.93-.84-1.33-.33l-.84,1.06c-.66-.88-2.17-2.75-4.41-4.64-4-3.39-8.42-5.18-12.77-5.18s-8.77,1.79-12.77,5.18c-1.18,1-2.15,1.99-2.91,2.83l-3.14-.44c-.45-.06-.85.28-.86.73l-.07,3.41c-.01.65.75,1.01,1.24.59l1.09-.92c.44.62,2.06,2.78,4.65,4.97,4.01,3.39,8.42,5.18,12.77,5.18s8.77-1.79,12.77-5.18c1.19-1.01,2.17-2,2.93-2.85.05,0,.09.04.15.03l3.41-.2c.45-.03.78-.44.7-.89l-.6-3.35Zm-7.57,6.08c-2.6,2.2-6.75,4.82-11.78,4.82s-9.16-2.6-11.75-4.79c-2.14-1.8-3.61-3.63-4.22-4.44.6-.8,2.05-2.61,4.18-4.41,2.6-2.2,6.75-4.82,11.78-4.82s9.16,2.6,11.75,4.79c2.14,1.8,3.61,3.63,4.22,4.44-.6.8-2.05,2.61-4.18,4.41"/>
    </g>
  </g>
</svg>